<mxfile host="65bd71144e">
    <diagram id="GFclDaCIk4YAcfMqffFD" name="Page-1">
        <mxGraphModel dx="401" dy="232" grid="1" gridSize="10" guides="1" tooltips="1" connect="1" arrows="1" fold="1" page="1" pageScale="1" pageWidth="850" pageHeight="1100" math="0" shadow="0">
            <root>
                <mxCell id="0"/>
                <mxCell id="1" parent="0"/>
                <mxCell id="2" value="" style="strokeWidth=1;shadow=0;dashed=0;align=center;html=1;shape=mxgraph.mockup.containers.browserWindow;rSize=0;strokeColor=#666666;strokeColor2=#008cff;strokeColor3=#c4c4c4;mainText=,;recursiveResize=0;container=0;" parent="1" vertex="1">
                    <mxGeometry x="210" y="480" width="850" height="1680" as="geometry"/>
                </mxCell>
                <mxCell id="415" value="" style="rounded=0;whiteSpace=wrap;html=1;fontSize=13;" parent="1" vertex="1">
                    <mxGeometry x="1100" y="590" width="360" height="1820" as="geometry"/>
                </mxCell>
                <mxCell id="428" value="" style="group" parent="1" vertex="1" connectable="0">
                    <mxGeometry x="1130" y="670" width="330" height="50" as="geometry"/>
                </mxCell>
                <mxCell id="429" value="" style="html=1;verticalLabelPosition=bottom;align=center;labelBackgroundColor=#ffffff;verticalAlign=top;strokeWidth=2;strokeColor=#000000;shadow=0;dashed=0;shape=mxgraph.ios7.icons.looking_glass;fontSize=15;fontColor=#000000;fillColor=none;" parent="428" vertex="1">
                    <mxGeometry x="270" y="4.939999999999998" width="20" height="20.12" as="geometry"/>
                </mxCell>
                <mxCell id="430" value="&amp;nbsp; Search" style="rounded=1;whiteSpace=wrap;html=1;strokeColor=#000000;fontSize=15;fontColor=#000000;fillColor=none;align=left;" parent="428" vertex="1">
                    <mxGeometry width="300" height="30" as="geometry"/>
                </mxCell>
                <mxCell id="431" value="" style="rounded=0;whiteSpace=wrap;html=1;strokeColor=default;fontSize=13;fontColor=#000000;fillColor=none;" parent="428" vertex="1">
                    <mxGeometry x="-30" y="-10" width="360" height="50" as="geometry"/>
                </mxCell>
                <mxCell id="551" value="" style="group" parent="1" vertex="1" connectable="0">
                    <mxGeometry x="1100" y="1950" width="360" height="460" as="geometry"/>
                </mxCell>
                <mxCell id="529" value="" style="rounded=0;whiteSpace=wrap;html=1;" parent="551" vertex="1">
                    <mxGeometry width="360" height="460" as="geometry"/>
                </mxCell>
                <mxCell id="530" value="&lt;b&gt;&lt;font style=&quot;font-size: 16px;&quot;&gt;Follow Us&lt;/font&gt;&lt;/b&gt;" style="text;html=1;align=left;verticalAlign=middle;whiteSpace=wrap;rounded=0;" parent="551" vertex="1">
                    <mxGeometry x="20" y="308.75" width="120" height="30" as="geometry"/>
                </mxCell>
                <mxCell id="531" value="" style="shape=image;html=1;verticalAlign=top;verticalLabelPosition=bottom;labelBackgroundColor=#ffffff;imageAspect=0;aspect=fixed;image=https://cdn2.iconfinder.com/data/icons/social-media-2285/512/1_Facebook_colored_svg_copy-128.png;fillColor=none;strokeColor=none;" parent="551" vertex="1">
                    <mxGeometry x="23" y="351.25" width="27.5" height="27.5" as="geometry"/>
                </mxCell>
                <mxCell id="532" value="" style="shape=image;html=1;verticalAlign=top;verticalLabelPosition=bottom;labelBackgroundColor=#ffffff;imageAspect=0;aspect=fixed;image=https://cdn3.iconfinder.com/data/icons/2018-social-media-logotypes/1000/2018_social_media_popular_app_logo_twitter-128.png;fillColor=none;strokeColor=none;" parent="551" vertex="1">
                    <mxGeometry x="68" y="351.25" width="27.5" height="27.5" as="geometry"/>
                </mxCell>
                <mxCell id="533" value="" style="shape=image;html=1;verticalAlign=top;verticalLabelPosition=bottom;labelBackgroundColor=#ffffff;imageAspect=0;aspect=fixed;image=https://cdn4.iconfinder.com/data/icons/social-media-flat-7/64/Social-media_Youtube-128.png;fillColor=none;strokeColor=none;" parent="551" vertex="1">
                    <mxGeometry x="111" y="350" width="30" height="30" as="geometry"/>
                </mxCell>
                <mxCell id="534" value="" style="dashed=0;outlineConnect=0;html=1;align=center;labelPosition=center;verticalLabelPosition=bottom;verticalAlign=top;shape=mxgraph.weblogos.instagram;fillColor=none;strokeColor=none;" parent="551" vertex="1">
                    <mxGeometry x="156" y="351.25" width="29" height="27.5" as="geometry"/>
                </mxCell>
                <mxCell id="536" value="&lt;b&gt;&lt;font style=&quot;font-size: 16px;&quot;&gt;Support&lt;/font&gt;&lt;/b&gt;" style="text;html=1;align=left;verticalAlign=middle;whiteSpace=wrap;rounded=0;" parent="551" vertex="1">
                    <mxGeometry x="20" y="20" width="120" height="30" as="geometry"/>
                </mxCell>
                <mxCell id="537" value="&lt;span style=&quot;font-size: 16px;&quot;&gt;&lt;b&gt;Corporate&lt;/b&gt;&lt;/span&gt;" style="text;html=1;align=left;verticalAlign=middle;whiteSpace=wrap;rounded=0;" parent="551" vertex="1">
                    <mxGeometry x="20" y="130" width="120" height="30" as="geometry"/>
                </mxCell>
                <mxCell id="538" value="&lt;b&gt;&lt;font style=&quot;font-size: 16px;&quot;&gt;Legal&lt;/font&gt;&lt;/b&gt;" style="text;html=1;align=left;verticalAlign=middle;whiteSpace=wrap;rounded=0;" parent="551" vertex="1">
                    <mxGeometry x="20" y="220" width="120" height="30" as="geometry"/>
                </mxCell>
                <mxCell id="539" value="Privacy Policy" style="text;html=1;strokeColor=none;fillColor=none;align=left;verticalAlign=middle;whiteSpace=wrap;rounded=0;fontSize=13;fontColor=#000000;" parent="551" vertex="1">
                    <mxGeometry x="20" y="250" width="150" height="30" as="geometry"/>
                </mxCell>
                <mxCell id="540" value="Terms &amp;amp; Conditions" style="text;html=1;strokeColor=none;fillColor=none;align=left;verticalAlign=middle;whiteSpace=wrap;rounded=0;fontSize=13;fontColor=#000000;" parent="551" vertex="1">
                    <mxGeometry x="20" y="270" width="150" height="30" as="geometry"/>
                </mxCell>
                <mxCell id="541" value="About Us" style="text;html=1;strokeColor=none;fillColor=none;align=left;verticalAlign=middle;whiteSpace=wrap;rounded=0;fontSize=13;fontColor=#000000;" parent="551" vertex="1">
                    <mxGeometry x="20" y="160" width="150" height="30" as="geometry"/>
                </mxCell>
                <mxCell id="542" value="Our Store" style="text;html=1;strokeColor=none;fillColor=none;align=left;verticalAlign=middle;whiteSpace=wrap;rounded=0;fontSize=13;fontColor=#000000;" parent="551" vertex="1">
                    <mxGeometry x="20" y="180" width="150" height="30" as="geometry"/>
                </mxCell>
                <mxCell id="543" value="Contact Us" style="text;html=1;strokeColor=none;fillColor=none;align=left;verticalAlign=middle;whiteSpace=wrap;rounded=0;fontSize=13;fontColor=#000000;" parent="551" vertex="1">
                    <mxGeometry x="20" y="70" width="150" height="30" as="geometry"/>
                </mxCell>
                <mxCell id="544" value="FAQ" style="text;html=1;strokeColor=none;fillColor=none;align=left;verticalAlign=middle;whiteSpace=wrap;rounded=0;fontSize=13;fontColor=#000000;" parent="551" vertex="1">
                    <mxGeometry x="20" y="50" width="150" height="30" as="geometry"/>
                </mxCell>
                <mxCell id="545" value="Shipping &amp;amp; Return" style="text;html=1;strokeColor=none;fillColor=none;align=left;verticalAlign=middle;whiteSpace=wrap;rounded=0;fontSize=13;fontColor=#000000;" parent="551" vertex="1">
                    <mxGeometry x="20" y="91.25" width="150" height="30" as="geometry"/>
                </mxCell>
                <mxCell id="546" value="" style="group;align=left;" parent="551" vertex="1" connectable="0">
                    <mxGeometry x="20" y="420" width="330" height="30" as="geometry"/>
                </mxCell>
                <mxCell id="547" value="&amp;nbsp;Copyright&amp;nbsp; &amp;nbsp; &amp;nbsp;2024 | Developed By &lt;i&gt;Team (2)&lt;/i&gt;" style="text;html=1;align=left;verticalAlign=middle;whiteSpace=wrap;rounded=0;" parent="546" vertex="1">
                    <mxGeometry width="330" height="30" as="geometry"/>
                </mxCell>
                <mxCell id="548" value="" style="strokeColor=#0f0f0f;verticalLabelPosition=bottom;shadow=0;dashed=0;verticalAlign=top;strokeWidth=1;html=1;shape=mxgraph.mockup.misc.copyrightIcon;perimeterSpacing=0;align=left;" parent="546" vertex="1">
                    <mxGeometry x="60" y="10" width="10" height="10" as="geometry"/>
                </mxCell>
                <mxCell id="535" value="" style="verticalLabelPosition=bottom;shadow=0;dashed=0;align=center;html=1;verticalAlign=top;strokeWidth=1;shape=mxgraph.mockup.markup.line;strokeColor=#999999;fontSize=16;fontColor=#000000;fillColor=#808080;" parent="546" vertex="1">
                    <mxGeometry y="-20" width="320" height="20" as="geometry"/>
                </mxCell>
                <mxCell id="3" value="Gamestopia" style="strokeWidth=1;shadow=0;dashed=0;align=center;html=1;shape=mxgraph.mockup.containers.anchor;fontSize=17;fontColor=#666666;align=left;" parent="1" vertex="1">
                    <mxGeometry x="270" y="492" width="170" height="26" as="geometry"/>
                </mxCell>
                <mxCell id="4" value="https://www.draw.io" style="strokeWidth=1;shadow=0;dashed=0;align=center;html=1;shape=mxgraph.mockup.containers.anchor;rSize=0;fontSize=17;fontColor=#666666;align=left;" parent="1" vertex="1">
                    <mxGeometry x="340" y="540" width="250" height="26" as="geometry"/>
                </mxCell>
                <mxCell id="557" value="&lt;span style=&quot;font-weight: normal;&quot;&gt;All Games&lt;/span&gt;" style="text;strokeColor=none;fillColor=none;html=1;fontSize=24;fontStyle=1;verticalAlign=middle;align=left;" parent="1" vertex="1">
                    <mxGeometry x="265" y="750" width="160" height="40" as="geometry"/>
                </mxCell>
                <mxCell id="550" value="" style="group" parent="1" vertex="1" connectable="0">
                    <mxGeometry x="210" y="1950" width="850" height="210" as="geometry"/>
                </mxCell>
                <mxCell id="160" value="" style="rounded=0;whiteSpace=wrap;html=1;" parent="550" vertex="1">
                    <mxGeometry width="850" height="210" as="geometry"/>
                </mxCell>
                <mxCell id="153" value="&lt;b&gt;&lt;font style=&quot;font-size: 16px;&quot;&gt;Follow Us&lt;/font&gt;&lt;/b&gt;" style="text;html=1;align=left;verticalAlign=middle;whiteSpace=wrap;rounded=0;" parent="550" vertex="1">
                    <mxGeometry x="611" y="30" width="120" height="30" as="geometry"/>
                </mxCell>
                <mxCell id="154" value="" style="shape=image;html=1;verticalAlign=top;verticalLabelPosition=bottom;labelBackgroundColor=#ffffff;imageAspect=0;aspect=fixed;image=https://cdn2.iconfinder.com/data/icons/social-media-2285/512/1_Facebook_colored_svg_copy-128.png;fillColor=none;strokeColor=none;" parent="550" vertex="1">
                    <mxGeometry x="614" y="72.5" width="27.5" height="27.5" as="geometry"/>
                </mxCell>
                <mxCell id="155" value="" style="shape=image;html=1;verticalAlign=top;verticalLabelPosition=bottom;labelBackgroundColor=#ffffff;imageAspect=0;aspect=fixed;image=https://cdn3.iconfinder.com/data/icons/2018-social-media-logotypes/1000/2018_social_media_popular_app_logo_twitter-128.png;fillColor=none;strokeColor=none;" parent="550" vertex="1">
                    <mxGeometry x="659" y="72.5" width="27.5" height="27.5" as="geometry"/>
                </mxCell>
                <mxCell id="156" value="" style="shape=image;html=1;verticalAlign=top;verticalLabelPosition=bottom;labelBackgroundColor=#ffffff;imageAspect=0;aspect=fixed;image=https://cdn4.iconfinder.com/data/icons/social-media-flat-7/64/Social-media_Youtube-128.png;fillColor=none;strokeColor=none;" parent="550" vertex="1">
                    <mxGeometry x="702" y="71.25" width="30" height="30" as="geometry"/>
                </mxCell>
                <mxCell id="158" value="" style="dashed=0;outlineConnect=0;html=1;align=center;labelPosition=center;verticalLabelPosition=bottom;verticalAlign=top;shape=mxgraph.weblogos.instagram;fillColor=none;strokeColor=none;" parent="550" vertex="1">
                    <mxGeometry x="747" y="72.5" width="29" height="27.5" as="geometry"/>
                </mxCell>
                <mxCell id="399" value="" style="verticalLabelPosition=bottom;shadow=0;dashed=0;align=center;html=1;verticalAlign=top;strokeWidth=1;shape=mxgraph.mockup.markup.line;strokeColor=#999999;fontSize=16;fontColor=#000000;fillColor=#808080;" parent="550" vertex="1">
                    <mxGeometry x="68" y="150" width="710" height="20" as="geometry"/>
                </mxCell>
                <mxCell id="400" value="&lt;b&gt;&lt;font style=&quot;font-size: 16px;&quot;&gt;Support&lt;/font&gt;&lt;/b&gt;" style="text;html=1;align=left;verticalAlign=middle;whiteSpace=wrap;rounded=0;" parent="550" vertex="1">
                    <mxGeometry x="70" y="30" width="120" height="30" as="geometry"/>
                </mxCell>
                <mxCell id="401" value="&lt;span style=&quot;font-size: 16px;&quot;&gt;&lt;b&gt;Corporate&lt;/b&gt;&lt;/span&gt;" style="text;html=1;align=left;verticalAlign=middle;whiteSpace=wrap;rounded=0;" parent="550" vertex="1">
                    <mxGeometry x="250" y="30" width="120" height="30" as="geometry"/>
                </mxCell>
                <mxCell id="402" value="&lt;b&gt;&lt;font style=&quot;font-size: 16px;&quot;&gt;Legal&lt;/font&gt;&lt;/b&gt;" style="text;html=1;align=left;verticalAlign=middle;whiteSpace=wrap;rounded=0;" parent="550" vertex="1">
                    <mxGeometry x="431" y="30" width="120" height="30" as="geometry"/>
                </mxCell>
                <mxCell id="406" value="Privacy Policy" style="text;html=1;strokeColor=none;fillColor=none;align=left;verticalAlign=middle;whiteSpace=wrap;rounded=0;fontSize=13;fontColor=#000000;" parent="550" vertex="1">
                    <mxGeometry x="431" y="60" width="150" height="30" as="geometry"/>
                </mxCell>
                <mxCell id="407" value="Terms &amp;amp; Conditions" style="text;html=1;strokeColor=none;fillColor=none;align=left;verticalAlign=middle;whiteSpace=wrap;rounded=0;fontSize=13;fontColor=#000000;" parent="550" vertex="1">
                    <mxGeometry x="431" y="80" width="150" height="30" as="geometry"/>
                </mxCell>
                <mxCell id="408" value="About Us" style="text;html=1;strokeColor=none;fillColor=none;align=left;verticalAlign=middle;whiteSpace=wrap;rounded=0;fontSize=13;fontColor=#000000;" parent="550" vertex="1">
                    <mxGeometry x="250" y="60" width="150" height="30" as="geometry"/>
                </mxCell>
                <mxCell id="409" value="Our Store" style="text;html=1;strokeColor=none;fillColor=none;align=left;verticalAlign=middle;whiteSpace=wrap;rounded=0;fontSize=13;fontColor=#000000;" parent="550" vertex="1">
                    <mxGeometry x="250" y="80" width="150" height="30" as="geometry"/>
                </mxCell>
                <mxCell id="410" value="Contact Us" style="text;html=1;strokeColor=none;fillColor=none;align=left;verticalAlign=middle;whiteSpace=wrap;rounded=0;fontSize=13;fontColor=#000000;" parent="550" vertex="1">
                    <mxGeometry x="70" y="80" width="150" height="30" as="geometry"/>
                </mxCell>
                <mxCell id="411" value="FAQ" style="text;html=1;strokeColor=none;fillColor=none;align=left;verticalAlign=middle;whiteSpace=wrap;rounded=0;fontSize=13;fontColor=#000000;" parent="550" vertex="1">
                    <mxGeometry x="70" y="60" width="150" height="30" as="geometry"/>
                </mxCell>
                <mxCell id="412" value="Shipping &amp;amp; Return" style="text;html=1;strokeColor=none;fillColor=none;align=left;verticalAlign=middle;whiteSpace=wrap;rounded=0;fontSize=13;fontColor=#000000;" parent="550" vertex="1">
                    <mxGeometry x="70" y="101.25" width="150" height="30" as="geometry"/>
                </mxCell>
                <mxCell id="161" value="" style="group" parent="550" vertex="1" connectable="0">
                    <mxGeometry x="260" y="170" width="330" height="30" as="geometry"/>
                </mxCell>
                <mxCell id="145" value="&amp;nbsp;Copyright&amp;nbsp; &amp;nbsp; &amp;nbsp;2024 | Developed By &lt;i&gt;Team (2)&lt;/i&gt;" style="text;html=1;align=center;verticalAlign=middle;whiteSpace=wrap;rounded=0;" parent="161" vertex="1">
                    <mxGeometry width="330" height="30" as="geometry"/>
                </mxCell>
                <mxCell id="144" value="" style="strokeColor=#0f0f0f;verticalLabelPosition=bottom;shadow=0;dashed=0;verticalAlign=top;strokeWidth=1;html=1;shape=mxgraph.mockup.misc.copyrightIcon;perimeterSpacing=0;" parent="161" vertex="1">
                    <mxGeometry x="105" y="10" width="10" height="10" as="geometry"/>
                </mxCell>
                <mxCell id="621" value="A - Z" style="rounded=1;fillColor=#F1F2F4;strokeColor=none;html=1;fontColor=#596780;align=left;fontSize=12;spacingLeft=10;sketch=0;" parent="1" vertex="1">
                    <mxGeometry x="890" y="813.37" width="88.5" height="23.25" as="geometry"/>
                </mxCell>
                <mxCell id="622" value="" style="shape=triangle;direction=south;fillColor=#596780;strokeColor=none;html=1;sketch=0;" parent="621" vertex="1">
                    <mxGeometry x="1" y="0.5" width="12" height="6" relative="1" as="geometry">
                        <mxPoint x="-20" y="-3" as="offset"/>
                    </mxGeometry>
                </mxCell>
                <mxCell id="623" value="Sort by:" style="text;html=1;strokeColor=none;fillColor=none;align=center;verticalAlign=middle;whiteSpace=wrap;rounded=0;fontSize=13;" parent="1" vertex="1">
                    <mxGeometry x="820" y="810" width="60" height="30" as="geometry"/>
                </mxCell>
                <mxCell id="624" value="Filters" style="text;html=1;strokeColor=none;fillColor=none;align=left;verticalAlign=middle;whiteSpace=wrap;rounded=0;fontSize=15;" parent="1" vertex="1">
                    <mxGeometry x="265" y="810" width="60" height="30" as="geometry"/>
                </mxCell>
                <mxCell id="625" value="" style="html=1;shadow=0;dashed=0;shape=mxgraph.bootstrap.rrect;rSize=5;strokeColor=#DEE2E6;html=1;whiteSpace=wrap;fillColor=#ffffff;fontColor=#000000;fontSize=13;" parent="1" vertex="1">
                    <mxGeometry x="690" y="1870" width="150" height="30" as="geometry"/>
                </mxCell>
                <mxCell id="626" value="&lt;&lt;" style="strokeColor=inherit;fillColor=inherit;gradientColor=inherit;fontColor=inherit;html=1;shadow=0;dashed=0;shape=mxgraph.bootstrap.leftButton;rSize=5;perimeter=none;whiteSpace=wrap;resizeHeight=1;fontSize=14;" parent="625" vertex="1">
                    <mxGeometry width="30" height="30" relative="1" as="geometry"/>
                </mxCell>
                <mxCell id="627" value="1" style="strokeColor=inherit;fillColor=inherit;gradientColor=inherit;fontColor=inherit;html=1;shadow=0;dashed=0;perimeter=none;whiteSpace=wrap;resizeHeight=1;fontSize=14;" parent="625" vertex="1">
                    <mxGeometry width="30" height="30" relative="1" as="geometry">
                        <mxPoint x="30" as="offset"/>
                    </mxGeometry>
                </mxCell>
                <mxCell id="628" value="2" style="strokeColor=inherit;fillColor=inherit;gradientColor=inherit;fontColor=inherit;html=1;shadow=0;dashed=0;perimeter=none;whiteSpace=wrap;resizeHeight=1;fontSize=14;" parent="625" vertex="1">
                    <mxGeometry width="30" height="30" relative="1" as="geometry">
                        <mxPoint x="60" as="offset"/>
                    </mxGeometry>
                </mxCell>
                <mxCell id="629" value="3" style="strokeColor=inherit;fillColor=inherit;gradientColor=inherit;fontColor=inherit;html=1;shadow=0;dashed=0;perimeter=none;whiteSpace=wrap;resizeHeight=1;fontSize=14;" parent="625" vertex="1">
                    <mxGeometry width="30" height="30" relative="1" as="geometry">
                        <mxPoint x="90" as="offset"/>
                    </mxGeometry>
                </mxCell>
                <mxCell id="630" value="&gt;&gt;" style="strokeColor=inherit;fillColor=inherit;gradientColor=inherit;fontColor=inherit;html=1;shadow=0;dashed=0;shape=mxgraph.bootstrap.rightButton;rSize=5;perimeter=none;whiteSpace=wrap;resizeHeight=1;fontSize=14;" parent="625" vertex="1">
                    <mxGeometry x="1" width="30" height="30" relative="1" as="geometry">
                        <mxPoint x="-30" as="offset"/>
                    </mxGeometry>
                </mxCell>
                <mxCell id="634" value="" style="group" parent="1" vertex="1" connectable="0">
                    <mxGeometry x="550" y="1370" width="428.5" height="199" as="geometry"/>
                </mxCell>
                <mxCell id="601" value="" style="group;flipH=1;" parent="634" vertex="1" connectable="0">
                    <mxGeometry x="165" width="98.5" height="199" as="geometry"/>
                </mxCell>
                <mxCell id="602" value="&lt;font style=&quot;font-size: 14px;&quot;&gt;Rent&lt;/font&gt;" style="rounded=1;whiteSpace=wrap;html=1;fontSize=17;" parent="601" vertex="1">
                    <mxGeometry x="16.75" y="179" width="65" height="20" as="geometry"/>
                </mxCell>
                <mxCell id="603" value="Game Img" style="rounded=0;whiteSpace=wrap;html=1;strokeColor=none;fontSize=15;fontColor=#333333;fillColor=#f5f5f5;" parent="601" vertex="1">
                    <mxGeometry width="98.5" height="130" as="geometry"/>
                </mxCell>
                <mxCell id="604" value="Game Title" style="text;html=1;strokeColor=none;fillColor=none;align=center;verticalAlign=middle;whiteSpace=wrap;rounded=0;fontSize=15;fontColor=#000000;" parent="601" vertex="1">
                    <mxGeometry x="3.5" y="130" width="91.5" height="30" as="geometry"/>
                </mxCell>
                <mxCell id="605" value="Platform" style="text;html=1;strokeColor=none;fillColor=none;align=center;verticalAlign=middle;whiteSpace=wrap;rounded=0;fontSize=13;fontColor=#808080;" parent="601" vertex="1">
                    <mxGeometry x="3.5" y="150" width="91.5" height="30" as="geometry"/>
                </mxCell>
                <mxCell id="606" value="" style="group;flipH=1;" parent="634" vertex="1" connectable="0">
                    <mxGeometry x="330" width="98.5" height="199" as="geometry"/>
                </mxCell>
                <mxCell id="607" value="&lt;font style=&quot;font-size: 14px;&quot;&gt;Rent&lt;/font&gt;" style="rounded=1;whiteSpace=wrap;html=1;fontSize=17;" parent="606" vertex="1">
                    <mxGeometry x="16.75" y="179" width="65" height="20" as="geometry"/>
                </mxCell>
                <mxCell id="608" value="Game Img" style="rounded=0;whiteSpace=wrap;html=1;strokeColor=none;fontSize=15;fontColor=#333333;fillColor=#f5f5f5;" parent="606" vertex="1">
                    <mxGeometry width="98.5" height="130" as="geometry"/>
                </mxCell>
                <mxCell id="609" value="Game Title" style="text;html=1;strokeColor=none;fillColor=none;align=center;verticalAlign=middle;whiteSpace=wrap;rounded=0;fontSize=15;fontColor=#000000;" parent="606" vertex="1">
                    <mxGeometry x="3.5" y="130" width="91.5" height="30" as="geometry"/>
                </mxCell>
                <mxCell id="610" value="Platform" style="text;html=1;strokeColor=none;fillColor=none;align=center;verticalAlign=middle;whiteSpace=wrap;rounded=0;fontSize=13;fontColor=#808080;" parent="606" vertex="1">
                    <mxGeometry x="3.5" y="150" width="91.5" height="30" as="geometry"/>
                </mxCell>
                <mxCell id="611" value="" style="group;flipH=1;" parent="634" vertex="1" connectable="0">
                    <mxGeometry width="98.5" height="199" as="geometry"/>
                </mxCell>
                <mxCell id="612" value="&lt;font style=&quot;font-size: 14px;&quot;&gt;Rent&lt;/font&gt;" style="rounded=1;whiteSpace=wrap;html=1;fontSize=17;" parent="611" vertex="1">
                    <mxGeometry x="16.75" y="179" width="65" height="20" as="geometry"/>
                </mxCell>
                <mxCell id="613" value="Game Img" style="rounded=0;whiteSpace=wrap;html=1;strokeColor=none;fontSize=15;fontColor=#333333;fillColor=#f5f5f5;" parent="611" vertex="1">
                    <mxGeometry width="98.5" height="130" as="geometry"/>
                </mxCell>
                <mxCell id="614" value="Game Title" style="text;html=1;strokeColor=none;fillColor=none;align=center;verticalAlign=middle;whiteSpace=wrap;rounded=0;fontSize=15;fontColor=#000000;" parent="611" vertex="1">
                    <mxGeometry x="3.5" y="130" width="91.5" height="30" as="geometry"/>
                </mxCell>
                <mxCell id="615" value="Platform" style="text;html=1;strokeColor=none;fillColor=none;align=center;verticalAlign=middle;whiteSpace=wrap;rounded=0;fontSize=13;fontColor=#808080;" parent="611" vertex="1">
                    <mxGeometry x="3.5" y="150" width="91.5" height="30" as="geometry"/>
                </mxCell>
                <mxCell id="635" value="" style="group" parent="1" vertex="1" connectable="0">
                    <mxGeometry x="550" y="1120" width="428.5" height="199" as="geometry"/>
                </mxCell>
                <mxCell id="636" value="" style="group;flipH=1;" parent="635" vertex="1" connectable="0">
                    <mxGeometry x="165" width="98.5" height="199" as="geometry"/>
                </mxCell>
                <mxCell id="637" value="&lt;font style=&quot;font-size: 14px;&quot;&gt;Rent&lt;/font&gt;" style="rounded=1;whiteSpace=wrap;html=1;fontSize=17;" parent="636" vertex="1">
                    <mxGeometry x="16.75" y="179" width="65" height="20" as="geometry"/>
                </mxCell>
                <mxCell id="638" value="Game Img" style="rounded=0;whiteSpace=wrap;html=1;strokeColor=none;fontSize=15;fontColor=#333333;fillColor=#f5f5f5;" parent="636" vertex="1">
                    <mxGeometry width="98.5" height="130" as="geometry"/>
                </mxCell>
                <mxCell id="639" value="Game Title" style="text;html=1;strokeColor=none;fillColor=none;align=center;verticalAlign=middle;whiteSpace=wrap;rounded=0;fontSize=15;fontColor=#000000;" parent="636" vertex="1">
                    <mxGeometry x="3.5" y="130" width="91.5" height="30" as="geometry"/>
                </mxCell>
                <mxCell id="640" value="Platform" style="text;html=1;strokeColor=none;fillColor=none;align=center;verticalAlign=middle;whiteSpace=wrap;rounded=0;fontSize=13;fontColor=#808080;" parent="636" vertex="1">
                    <mxGeometry x="3.5" y="150" width="91.5" height="30" as="geometry"/>
                </mxCell>
                <mxCell id="641" value="" style="group;flipH=1;" parent="635" vertex="1" connectable="0">
                    <mxGeometry x="330" width="98.5" height="199" as="geometry"/>
                </mxCell>
                <mxCell id="642" value="&lt;font style=&quot;font-size: 14px;&quot;&gt;Rent&lt;/font&gt;" style="rounded=1;whiteSpace=wrap;html=1;fontSize=17;" parent="641" vertex="1">
                    <mxGeometry x="16.75" y="179" width="65" height="20" as="geometry"/>
                </mxCell>
                <mxCell id="643" value="Game Img" style="rounded=0;whiteSpace=wrap;html=1;strokeColor=none;fontSize=15;fontColor=#333333;fillColor=#f5f5f5;" parent="641" vertex="1">
                    <mxGeometry width="98.5" height="130" as="geometry"/>
                </mxCell>
                <mxCell id="644" value="Game Title" style="text;html=1;strokeColor=none;fillColor=none;align=center;verticalAlign=middle;whiteSpace=wrap;rounded=0;fontSize=15;fontColor=#000000;" parent="641" vertex="1">
                    <mxGeometry x="3.5" y="130" width="91.5" height="30" as="geometry"/>
                </mxCell>
                <mxCell id="645" value="Platform" style="text;html=1;strokeColor=none;fillColor=none;align=center;verticalAlign=middle;whiteSpace=wrap;rounded=0;fontSize=13;fontColor=#808080;" parent="641" vertex="1">
                    <mxGeometry x="3.5" y="150" width="91.5" height="30" as="geometry"/>
                </mxCell>
                <mxCell id="646" value="" style="group;flipH=1;" parent="635" vertex="1" connectable="0">
                    <mxGeometry width="98.5" height="199" as="geometry"/>
                </mxCell>
                <mxCell id="647" value="&lt;font style=&quot;font-size: 14px;&quot;&gt;Rent&lt;/font&gt;" style="rounded=1;whiteSpace=wrap;html=1;fontSize=17;" parent="646" vertex="1">
                    <mxGeometry x="16.75" y="179" width="65" height="20" as="geometry"/>
                </mxCell>
                <mxCell id="648" value="Game Img" style="rounded=0;whiteSpace=wrap;html=1;strokeColor=none;fontSize=15;fontColor=#333333;fillColor=#f5f5f5;" parent="646" vertex="1">
                    <mxGeometry width="98.5" height="130" as="geometry"/>
                </mxCell>
                <mxCell id="649" value="Game Title" style="text;html=1;strokeColor=none;fillColor=none;align=center;verticalAlign=middle;whiteSpace=wrap;rounded=0;fontSize=15;fontColor=#000000;" parent="646" vertex="1">
                    <mxGeometry x="3.5" y="130" width="91.5" height="30" as="geometry"/>
                </mxCell>
                <mxCell id="650" value="Platform" style="text;html=1;strokeColor=none;fillColor=none;align=center;verticalAlign=middle;whiteSpace=wrap;rounded=0;fontSize=13;fontColor=#808080;" parent="646" vertex="1">
                    <mxGeometry x="3.5" y="150" width="91.5" height="30" as="geometry"/>
                </mxCell>
                <mxCell id="651" value="" style="group" parent="1" vertex="1" connectable="0">
                    <mxGeometry x="550" y="870" width="428.5" height="199" as="geometry"/>
                </mxCell>
                <mxCell id="652" value="" style="group;flipH=1;" parent="651" vertex="1" connectable="0">
                    <mxGeometry x="165" width="98.5" height="199" as="geometry"/>
                </mxCell>
                <mxCell id="653" value="&lt;font style=&quot;font-size: 14px;&quot;&gt;Rent&lt;/font&gt;" style="rounded=1;whiteSpace=wrap;html=1;fontSize=17;" parent="652" vertex="1">
                    <mxGeometry x="16.75" y="179" width="65" height="20" as="geometry"/>
                </mxCell>
                <mxCell id="654" value="Game Img" style="rounded=0;whiteSpace=wrap;html=1;strokeColor=none;fontSize=15;fontColor=#333333;fillColor=#f5f5f5;" parent="652" vertex="1">
                    <mxGeometry width="98.5" height="130" as="geometry"/>
                </mxCell>
                <mxCell id="655" value="Game Title" style="text;html=1;strokeColor=none;fillColor=none;align=center;verticalAlign=middle;whiteSpace=wrap;rounded=0;fontSize=15;fontColor=#000000;" parent="652" vertex="1">
                    <mxGeometry x="3.5" y="130" width="91.5" height="30" as="geometry"/>
                </mxCell>
                <mxCell id="656" value="Platform" style="text;html=1;strokeColor=none;fillColor=none;align=center;verticalAlign=middle;whiteSpace=wrap;rounded=0;fontSize=13;fontColor=#808080;" parent="652" vertex="1">
                    <mxGeometry x="3.5" y="150" width="91.5" height="30" as="geometry"/>
                </mxCell>
                <mxCell id="657" value="" style="group;flipH=1;" parent="651" vertex="1" connectable="0">
                    <mxGeometry x="330" width="98.5" height="199" as="geometry"/>
                </mxCell>
                <mxCell id="658" value="&lt;font style=&quot;font-size: 14px;&quot;&gt;Rent&lt;/font&gt;" style="rounded=1;whiteSpace=wrap;html=1;fontSize=17;" parent="657" vertex="1">
                    <mxGeometry x="16.75" y="179" width="65" height="20" as="geometry"/>
                </mxCell>
                <mxCell id="659" value="Game Img" style="rounded=0;whiteSpace=wrap;html=1;strokeColor=none;fontSize=15;fontColor=#333333;fillColor=#f5f5f5;" parent="657" vertex="1">
                    <mxGeometry width="98.5" height="130" as="geometry"/>
                </mxCell>
                <mxCell id="660" value="Game Title" style="text;html=1;strokeColor=none;fillColor=none;align=center;verticalAlign=middle;whiteSpace=wrap;rounded=0;fontSize=15;fontColor=#000000;" parent="657" vertex="1">
                    <mxGeometry x="3.5" y="130" width="91.5" height="30" as="geometry"/>
                </mxCell>
                <mxCell id="661" value="Platform" style="text;html=1;strokeColor=none;fillColor=none;align=center;verticalAlign=middle;whiteSpace=wrap;rounded=0;fontSize=13;fontColor=#808080;" parent="657" vertex="1">
                    <mxGeometry x="3.5" y="150" width="91.5" height="30" as="geometry"/>
                </mxCell>
                <mxCell id="662" value="" style="group;flipH=1;" parent="651" vertex="1" connectable="0">
                    <mxGeometry width="98.5" height="199" as="geometry"/>
                </mxCell>
                <mxCell id="663" value="&lt;font style=&quot;font-size: 14px;&quot;&gt;Rent&lt;/font&gt;" style="rounded=1;whiteSpace=wrap;html=1;fontSize=17;" parent="662" vertex="1">
                    <mxGeometry x="16.75" y="179" width="65" height="20" as="geometry"/>
                </mxCell>
                <mxCell id="664" value="Game Img" style="rounded=0;whiteSpace=wrap;html=1;strokeColor=none;fontSize=15;fontColor=#333333;fillColor=#f5f5f5;" parent="662" vertex="1">
                    <mxGeometry width="98.5" height="130" as="geometry"/>
                </mxCell>
                <mxCell id="665" value="Game Title" style="text;html=1;strokeColor=none;fillColor=none;align=center;verticalAlign=middle;whiteSpace=wrap;rounded=0;fontSize=15;fontColor=#000000;" parent="662" vertex="1">
                    <mxGeometry x="3.5" y="130" width="91.5" height="30" as="geometry"/>
                </mxCell>
                <mxCell id="666" value="Platform" style="text;html=1;strokeColor=none;fillColor=none;align=center;verticalAlign=middle;whiteSpace=wrap;rounded=0;fontSize=13;fontColor=#808080;" parent="662" vertex="1">
                    <mxGeometry x="3.5" y="150" width="91.5" height="30" as="geometry"/>
                </mxCell>
                <mxCell id="683" value="" style="group" parent="1" vertex="1" connectable="0">
                    <mxGeometry x="550" y="1620" width="428.5" height="199" as="geometry"/>
                </mxCell>
                <mxCell id="684" value="" style="group;flipH=1;" parent="683" vertex="1" connectable="0">
                    <mxGeometry x="165" width="98.5" height="199" as="geometry"/>
                </mxCell>
                <mxCell id="685" value="&lt;font style=&quot;font-size: 14px;&quot;&gt;Rent&lt;/font&gt;" style="rounded=1;whiteSpace=wrap;html=1;fontSize=17;" parent="684" vertex="1">
                    <mxGeometry x="16.75" y="179" width="65" height="20" as="geometry"/>
                </mxCell>
                <mxCell id="686" value="Game Img" style="rounded=0;whiteSpace=wrap;html=1;strokeColor=none;fontSize=15;fontColor=#333333;fillColor=#f5f5f5;" parent="684" vertex="1">
                    <mxGeometry width="98.5" height="130" as="geometry"/>
                </mxCell>
                <mxCell id="687" value="Game Title" style="text;html=1;strokeColor=none;fillColor=none;align=center;verticalAlign=middle;whiteSpace=wrap;rounded=0;fontSize=15;fontColor=#000000;" parent="684" vertex="1">
                    <mxGeometry x="3.5" y="130" width="91.5" height="30" as="geometry"/>
                </mxCell>
                <mxCell id="688" value="Platform" style="text;html=1;strokeColor=none;fillColor=none;align=center;verticalAlign=middle;whiteSpace=wrap;rounded=0;fontSize=13;fontColor=#808080;" parent="684" vertex="1">
                    <mxGeometry x="3.5" y="150" width="91.5" height="30" as="geometry"/>
                </mxCell>
                <mxCell id="689" value="" style="group;flipH=1;" parent="683" vertex="1" connectable="0">
                    <mxGeometry x="330" width="98.5" height="199" as="geometry"/>
                </mxCell>
                <mxCell id="690" value="&lt;font style=&quot;font-size: 14px;&quot;&gt;Rent&lt;/font&gt;" style="rounded=1;whiteSpace=wrap;html=1;fontSize=17;" parent="689" vertex="1">
                    <mxGeometry x="16.75" y="179" width="65" height="20" as="geometry"/>
                </mxCell>
                <mxCell id="691" value="Game Img" style="rounded=0;whiteSpace=wrap;html=1;strokeColor=none;fontSize=15;fontColor=#333333;fillColor=#f5f5f5;" parent="689" vertex="1">
                    <mxGeometry width="98.5" height="130" as="geometry"/>
                </mxCell>
                <mxCell id="692" value="Game Title" style="text;html=1;strokeColor=none;fillColor=none;align=center;verticalAlign=middle;whiteSpace=wrap;rounded=0;fontSize=15;fontColor=#000000;" parent="689" vertex="1">
                    <mxGeometry x="3.5" y="130" width="91.5" height="30" as="geometry"/>
                </mxCell>
                <mxCell id="693" value="Platform" style="text;html=1;strokeColor=none;fillColor=none;align=center;verticalAlign=middle;whiteSpace=wrap;rounded=0;fontSize=13;fontColor=#808080;" parent="689" vertex="1">
                    <mxGeometry x="3.5" y="150" width="91.5" height="30" as="geometry"/>
                </mxCell>
                <mxCell id="694" value="" style="group;flipH=1;" parent="683" vertex="1" connectable="0">
                    <mxGeometry width="98.5" height="199" as="geometry"/>
                </mxCell>
                <mxCell id="695" value="&lt;font style=&quot;font-size: 14px;&quot;&gt;Rent&lt;/font&gt;" style="rounded=1;whiteSpace=wrap;html=1;fontSize=17;" parent="694" vertex="1">
                    <mxGeometry x="16.75" y="179" width="65" height="20" as="geometry"/>
                </mxCell>
                <mxCell id="696" value="Game Img" style="rounded=0;whiteSpace=wrap;html=1;strokeColor=none;fontSize=15;fontColor=#333333;fillColor=#f5f5f5;" parent="694" vertex="1">
                    <mxGeometry width="98.5" height="130" as="geometry"/>
                </mxCell>
                <mxCell id="697" value="Game Title" style="text;html=1;strokeColor=none;fillColor=none;align=center;verticalAlign=middle;whiteSpace=wrap;rounded=0;fontSize=15;fontColor=#000000;" parent="694" vertex="1">
                    <mxGeometry x="3.5" y="130" width="91.5" height="30" as="geometry"/>
                </mxCell>
                <mxCell id="698" value="Platform" style="text;html=1;strokeColor=none;fillColor=none;align=center;verticalAlign=middle;whiteSpace=wrap;rounded=0;fontSize=13;fontColor=#808080;" parent="694" vertex="1">
                    <mxGeometry x="3.5" y="150" width="91.5" height="30" as="geometry"/>
                </mxCell>
                <mxCell id="702" value="" style="group" parent="1" vertex="1" connectable="0">
                    <mxGeometry x="280" y="850" width="169" height="30" as="geometry"/>
                </mxCell>
                <mxCell id="700" value="Platform" style="text;html=1;strokeColor=none;fillColor=none;align=left;verticalAlign=middle;whiteSpace=wrap;rounded=0;fontSize=13;fontStyle=1" parent="702" vertex="1">
                    <mxGeometry width="60" height="30" as="geometry"/>
                </mxCell>
                <mxCell id="711" value="" style="html=1;verticalLabelPosition=bottom;labelBackgroundColor=#ffffff;verticalAlign=top;shadow=0;dashed=0;strokeWidth=2;shape=mxgraph.ios7.misc.down;strokeColor=default;fontSize=15;fontColor=#000000;fillColor=none;container=0;flipV=1;" parent="702" vertex="1">
                    <mxGeometry x="159" y="13.5" width="10" height="3" as="geometry"/>
                </mxCell>
                <mxCell id="703" value="" style="group" parent="1" vertex="1" connectable="0">
                    <mxGeometry x="280" y="1040" width="168" height="30" as="geometry"/>
                </mxCell>
                <mxCell id="704" value="Rating" style="text;html=1;strokeColor=none;fillColor=none;align=left;verticalAlign=middle;whiteSpace=wrap;rounded=0;fontSize=13;fontStyle=1" parent="703" vertex="1">
                    <mxGeometry width="60" height="30" as="geometry"/>
                </mxCell>
                <mxCell id="803" value="" style="html=1;verticalLabelPosition=bottom;labelBackgroundColor=#ffffff;verticalAlign=top;shadow=0;dashed=0;strokeWidth=2;shape=mxgraph.ios7.misc.down;strokeColor=default;fontSize=15;fontColor=#000000;fillColor=none;container=0;" vertex="1" parent="703">
                    <mxGeometry x="160" y="13.5" width="8" height="3" as="geometry"/>
                </mxCell>
                <mxCell id="706" value="" style="group" parent="1" vertex="1" connectable="0">
                    <mxGeometry x="280" y="1070" width="168" height="30" as="geometry"/>
                </mxCell>
                <mxCell id="707" value="Publisher" style="text;html=1;strokeColor=none;fillColor=none;align=left;verticalAlign=middle;whiteSpace=wrap;rounded=0;fontSize=13;fontStyle=1" parent="706" vertex="1">
                    <mxGeometry width="60" height="30" as="geometry"/>
                </mxCell>
                <mxCell id="709" value="" style="group" parent="1" vertex="1" connectable="0">
                    <mxGeometry x="280" y="1010" width="168" height="30" as="geometry"/>
                </mxCell>
                <mxCell id="710" value="&lt;b&gt;Genre&lt;/b&gt;" style="text;html=1;strokeColor=none;fillColor=none;align=left;verticalAlign=middle;whiteSpace=wrap;rounded=0;fontSize=13;" parent="709" vertex="1">
                    <mxGeometry width="60" height="30" as="geometry"/>
                </mxCell>
                <mxCell id="701" value="" style="html=1;verticalLabelPosition=bottom;labelBackgroundColor=#ffffff;verticalAlign=top;shadow=0;dashed=0;strokeWidth=2;shape=mxgraph.ios7.misc.down;strokeColor=default;fontSize=15;fontColor=#000000;fillColor=none;container=0;" parent="709" vertex="1">
                    <mxGeometry x="160" y="13.5" width="8" height="3" as="geometry"/>
                </mxCell>
                <mxCell id="712" value="PlayStation 5&amp;nbsp; &amp;nbsp; &amp;nbsp; &amp;nbsp; &amp;nbsp; &amp;nbsp; &amp;nbsp; &amp;nbsp; &amp;nbsp; &amp;nbsp; 112" style="text;html=1;strokeColor=none;fillColor=none;align=left;verticalAlign=middle;whiteSpace=wrap;rounded=0;fontSize=13;" parent="1" vertex="1">
                    <mxGeometry x="280" y="880" width="180" height="30" as="geometry"/>
                </mxCell>
                <mxCell id="713" value="Nintendo Switch&amp;nbsp; &amp;nbsp; &amp;nbsp; &amp;nbsp; &amp;nbsp; &amp;nbsp; &amp;nbsp; &amp;nbsp;153" style="text;html=1;strokeColor=none;fillColor=none;align=left;verticalAlign=middle;whiteSpace=wrap;rounded=0;fontSize=13;" parent="1" vertex="1">
                    <mxGeometry x="280" y="910" width="180" height="30" as="geometry"/>
                </mxCell>
                <mxCell id="714" value="PlayStation 4&amp;nbsp; &amp;nbsp; &amp;nbsp; &amp;nbsp; &amp;nbsp; &amp;nbsp; &amp;nbsp; &amp;nbsp; &amp;nbsp; &amp;nbsp; 175" style="text;html=1;strokeColor=none;fillColor=none;align=left;verticalAlign=middle;whiteSpace=wrap;rounded=0;fontSize=13;" parent="1" vertex="1">
                    <mxGeometry x="280" y="940" width="180" height="30" as="geometry"/>
                </mxCell>
                <mxCell id="717" value="" style="group" parent="1" vertex="1" connectable="0">
                    <mxGeometry x="280" y="970" width="80" height="30" as="geometry"/>
                </mxCell>
                <mxCell id="715" value="&lt;font style=&quot;font-size: 11px;&quot;&gt;Show More&lt;/font&gt;" style="text;html=1;strokeColor=none;fillColor=none;align=left;verticalAlign=middle;whiteSpace=wrap;rounded=0;fontSize=13;fontColor=#808080;" parent="717" vertex="1">
                    <mxGeometry width="80" height="30" as="geometry"/>
                </mxCell>
                <mxCell id="716" value="" style="html=1;verticalLabelPosition=bottom;labelBackgroundColor=#ffffff;verticalAlign=top;shadow=0;dashed=0;strokeWidth=1;shape=mxgraph.ios7.misc.down;strokeColor=default;fontSize=15;fontColor=#808080;fillColor=none;container=0;fontStyle=0" parent="717" vertex="1">
                    <mxGeometry x="60" y="13.5" width="8" height="3" as="geometry"/>
                </mxCell>
                <mxCell id="718" value="&lt;span style=&quot;font-weight: normal;&quot;&gt;All Games&lt;/span&gt;" style="text;strokeColor=none;fillColor=none;html=1;fontSize=24;fontStyle=1;verticalAlign=middle;align=left;" parent="1" vertex="1">
                    <mxGeometry x="1115" y="730" width="160" height="40" as="geometry"/>
                </mxCell>
                <mxCell id="719" value="A - Z" style="rounded=1;fillColor=#F1F2F4;strokeColor=none;html=1;fontColor=#596780;align=left;fontSize=12;spacingLeft=10;sketch=0;" parent="1" vertex="1">
                    <mxGeometry x="1349.5" y="786.74" width="88.5" height="23.25" as="geometry"/>
                </mxCell>
                <mxCell id="720" value="" style="shape=triangle;direction=south;fillColor=#596780;strokeColor=none;html=1;sketch=0;" parent="719" vertex="1">
                    <mxGeometry x="1" y="0.5" width="12" height="6" relative="1" as="geometry">
                        <mxPoint x="-20" y="-3" as="offset"/>
                    </mxGeometry>
                </mxCell>
                <mxCell id="721" value="Sort by:" style="text;html=1;strokeColor=none;fillColor=none;align=center;verticalAlign=middle;whiteSpace=wrap;rounded=0;fontSize=13;" parent="1" vertex="1">
                    <mxGeometry x="1279.5" y="783.37" width="60" height="30" as="geometry"/>
                </mxCell>
                <mxCell id="722" value="Filters" style="text;html=1;strokeColor=none;fillColor=none;align=left;verticalAlign=middle;whiteSpace=wrap;rounded=0;fontSize=15;" parent="1" vertex="1">
                    <mxGeometry x="1113" y="783.37" width="60" height="30" as="geometry"/>
                </mxCell>
                <mxCell id="739" value="" style="group" parent="1" vertex="1" connectable="0">
                    <mxGeometry x="1151" y="850" width="248.6199999999999" height="198.9999999999999" as="geometry"/>
                </mxCell>
                <mxCell id="464" value="&lt;font style=&quot;font-size: 14px;&quot;&gt;Rent&lt;/font&gt;" style="rounded=1;whiteSpace=wrap;html=1;fontSize=17;container=0;" parent="739" vertex="1">
                    <mxGeometry x="16.75" y="179" width="65" height="20" as="geometry"/>
                </mxCell>
                <mxCell id="465" value="Game Img" style="rounded=0;whiteSpace=wrap;html=1;strokeColor=none;fontSize=15;fontColor=#333333;fillColor=#f5f5f5;container=0;" parent="739" vertex="1">
                    <mxGeometry width="98.5" height="130" as="geometry"/>
                </mxCell>
                <mxCell id="466" value="Game Title" style="text;html=1;strokeColor=none;fillColor=none;align=center;verticalAlign=middle;whiteSpace=wrap;rounded=0;fontSize=15;fontColor=#000000;container=0;" parent="739" vertex="1">
                    <mxGeometry x="3.5" y="130" width="91.5" height="30" as="geometry"/>
                </mxCell>
                <mxCell id="467" value="Platform" style="text;html=1;strokeColor=none;fillColor=none;align=center;verticalAlign=middle;whiteSpace=wrap;rounded=0;fontSize=13;fontColor=#808080;container=0;" parent="739" vertex="1">
                    <mxGeometry x="3.5" y="150" width="91.5" height="30" as="geometry"/>
                </mxCell>
                <mxCell id="474" value="&lt;font style=&quot;font-size: 14px;&quot;&gt;Rent&lt;/font&gt;" style="rounded=1;whiteSpace=wrap;html=1;fontSize=17;container=0;" parent="739" vertex="1">
                    <mxGeometry x="166.8699999999999" y="179" width="65" height="20" as="geometry"/>
                </mxCell>
                <mxCell id="475" value="Game Img" style="rounded=0;whiteSpace=wrap;html=1;strokeColor=none;fontSize=15;fontColor=#333333;fillColor=#f5f5f5;container=0;" parent="739" vertex="1">
                    <mxGeometry x="150.1199999999999" width="98.5" height="130" as="geometry"/>
                </mxCell>
                <mxCell id="476" value="Game Title" style="text;html=1;strokeColor=none;fillColor=none;align=center;verticalAlign=middle;whiteSpace=wrap;rounded=0;fontSize=15;fontColor=#000000;container=0;" parent="739" vertex="1">
                    <mxGeometry x="153.6199999999999" y="130" width="91.5" height="30" as="geometry"/>
                </mxCell>
                <mxCell id="477" value="Platform" style="text;html=1;strokeColor=none;fillColor=none;align=center;verticalAlign=middle;whiteSpace=wrap;rounded=0;fontSize=13;fontColor=#808080;container=0;" parent="739" vertex="1">
                    <mxGeometry x="153.6199999999999" y="150" width="91.5" height="30" as="geometry"/>
                </mxCell>
                <mxCell id="740" value="" style="group" parent="1" vertex="1" connectable="0">
                    <mxGeometry x="1151" y="1100" width="248.6199999999999" height="198.9999999999999" as="geometry"/>
                </mxCell>
                <mxCell id="741" value="&lt;font style=&quot;font-size: 14px;&quot;&gt;Rent&lt;/font&gt;" style="rounded=1;whiteSpace=wrap;html=1;fontSize=17;container=0;" parent="740" vertex="1">
                    <mxGeometry x="16.75" y="179" width="65" height="20" as="geometry"/>
                </mxCell>
                <mxCell id="742" value="Game Img" style="rounded=0;whiteSpace=wrap;html=1;strokeColor=none;fontSize=15;fontColor=#333333;fillColor=#f5f5f5;container=0;" parent="740" vertex="1">
                    <mxGeometry width="98.5" height="130" as="geometry"/>
                </mxCell>
                <mxCell id="743" value="Game Title" style="text;html=1;strokeColor=none;fillColor=none;align=center;verticalAlign=middle;whiteSpace=wrap;rounded=0;fontSize=15;fontColor=#000000;container=0;" parent="740" vertex="1">
                    <mxGeometry x="3.5" y="130" width="91.5" height="30" as="geometry"/>
                </mxCell>
                <mxCell id="744" value="Platform" style="text;html=1;strokeColor=none;fillColor=none;align=center;verticalAlign=middle;whiteSpace=wrap;rounded=0;fontSize=13;fontColor=#808080;container=0;" parent="740" vertex="1">
                    <mxGeometry x="3.5" y="150" width="91.5" height="30" as="geometry"/>
                </mxCell>
                <mxCell id="745" value="&lt;font style=&quot;font-size: 14px;&quot;&gt;Rent&lt;/font&gt;" style="rounded=1;whiteSpace=wrap;html=1;fontSize=17;container=0;" parent="740" vertex="1">
                    <mxGeometry x="166.8699999999999" y="179" width="65" height="20" as="geometry"/>
                </mxCell>
                <mxCell id="746" value="Game Img" style="rounded=0;whiteSpace=wrap;html=1;strokeColor=none;fontSize=15;fontColor=#333333;fillColor=#f5f5f5;container=0;" parent="740" vertex="1">
                    <mxGeometry x="150.1199999999999" width="98.5" height="130" as="geometry"/>
                </mxCell>
                <mxCell id="747" value="Game Title" style="text;html=1;strokeColor=none;fillColor=none;align=center;verticalAlign=middle;whiteSpace=wrap;rounded=0;fontSize=15;fontColor=#000000;container=0;" parent="740" vertex="1">
                    <mxGeometry x="153.6199999999999" y="130" width="91.5" height="30" as="geometry"/>
                </mxCell>
                <mxCell id="748" value="Platform" style="text;html=1;strokeColor=none;fillColor=none;align=center;verticalAlign=middle;whiteSpace=wrap;rounded=0;fontSize=13;fontColor=#808080;container=0;" parent="740" vertex="1">
                    <mxGeometry x="153.6199999999999" y="150" width="91.5" height="30" as="geometry"/>
                </mxCell>
                <mxCell id="749" value="" style="group" parent="1" vertex="1" connectable="0">
                    <mxGeometry x="1151" y="1350" width="248.6199999999999" height="198.9999999999999" as="geometry"/>
                </mxCell>
                <mxCell id="750" value="&lt;font style=&quot;font-size: 14px;&quot;&gt;Rent&lt;/font&gt;" style="rounded=1;whiteSpace=wrap;html=1;fontSize=17;container=0;" parent="749" vertex="1">
                    <mxGeometry x="16.75" y="179" width="65" height="20" as="geometry"/>
                </mxCell>
                <mxCell id="751" value="Game Img" style="rounded=0;whiteSpace=wrap;html=1;strokeColor=none;fontSize=15;fontColor=#333333;fillColor=#f5f5f5;container=0;" parent="749" vertex="1">
                    <mxGeometry width="98.5" height="130" as="geometry"/>
                </mxCell>
                <mxCell id="752" value="Game Title" style="text;html=1;strokeColor=none;fillColor=none;align=center;verticalAlign=middle;whiteSpace=wrap;rounded=0;fontSize=15;fontColor=#000000;container=0;" parent="749" vertex="1">
                    <mxGeometry x="3.5" y="130" width="91.5" height="30" as="geometry"/>
                </mxCell>
                <mxCell id="753" value="Platform" style="text;html=1;strokeColor=none;fillColor=none;align=center;verticalAlign=middle;whiteSpace=wrap;rounded=0;fontSize=13;fontColor=#808080;container=0;" parent="749" vertex="1">
                    <mxGeometry x="3.5" y="150" width="91.5" height="30" as="geometry"/>
                </mxCell>
                <mxCell id="754" value="&lt;font style=&quot;font-size: 14px;&quot;&gt;Rent&lt;/font&gt;" style="rounded=1;whiteSpace=wrap;html=1;fontSize=17;container=0;" parent="749" vertex="1">
                    <mxGeometry x="166.8699999999999" y="179" width="65" height="20" as="geometry"/>
                </mxCell>
                <mxCell id="755" value="Game Img" style="rounded=0;whiteSpace=wrap;html=1;strokeColor=none;fontSize=15;fontColor=#333333;fillColor=#f5f5f5;container=0;" parent="749" vertex="1">
                    <mxGeometry x="150.1199999999999" width="98.5" height="130" as="geometry"/>
                </mxCell>
                <mxCell id="756" value="Game Title" style="text;html=1;strokeColor=none;fillColor=none;align=center;verticalAlign=middle;whiteSpace=wrap;rounded=0;fontSize=15;fontColor=#000000;container=0;" parent="749" vertex="1">
                    <mxGeometry x="153.6199999999999" y="130" width="91.5" height="30" as="geometry"/>
                </mxCell>
                <mxCell id="757" value="Platform" style="text;html=1;strokeColor=none;fillColor=none;align=center;verticalAlign=middle;whiteSpace=wrap;rounded=0;fontSize=13;fontColor=#808080;container=0;" parent="749" vertex="1">
                    <mxGeometry x="153.6199999999999" y="150" width="91.5" height="30" as="geometry"/>
                </mxCell>
                <mxCell id="758" value="" style="group" parent="1" vertex="1" connectable="0">
                    <mxGeometry x="1151" y="1610" width="248.6199999999999" height="198.9999999999999" as="geometry"/>
                </mxCell>
                <mxCell id="759" value="&lt;font style=&quot;font-size: 14px;&quot;&gt;Rent&lt;/font&gt;" style="rounded=1;whiteSpace=wrap;html=1;fontSize=17;container=0;" parent="758" vertex="1">
                    <mxGeometry x="16.75" y="179" width="65" height="20" as="geometry"/>
                </mxCell>
                <mxCell id="760" value="Game Img" style="rounded=0;whiteSpace=wrap;html=1;strokeColor=none;fontSize=15;fontColor=#333333;fillColor=#f5f5f5;container=0;" parent="758" vertex="1">
                    <mxGeometry width="98.5" height="130" as="geometry"/>
                </mxCell>
                <mxCell id="761" value="Game Title" style="text;html=1;strokeColor=none;fillColor=none;align=center;verticalAlign=middle;whiteSpace=wrap;rounded=0;fontSize=15;fontColor=#000000;container=0;" parent="758" vertex="1">
                    <mxGeometry x="3.5" y="130" width="91.5" height="30" as="geometry"/>
                </mxCell>
                <mxCell id="762" value="Platform" style="text;html=1;strokeColor=none;fillColor=none;align=center;verticalAlign=middle;whiteSpace=wrap;rounded=0;fontSize=13;fontColor=#808080;container=0;" parent="758" vertex="1">
                    <mxGeometry x="3.5" y="150" width="91.5" height="30" as="geometry"/>
                </mxCell>
                <mxCell id="763" value="&lt;font style=&quot;font-size: 14px;&quot;&gt;Rent&lt;/font&gt;" style="rounded=1;whiteSpace=wrap;html=1;fontSize=17;container=0;" parent="758" vertex="1">
                    <mxGeometry x="166.8699999999999" y="179" width="65" height="20" as="geometry"/>
                </mxCell>
                <mxCell id="764" value="Game Img" style="rounded=0;whiteSpace=wrap;html=1;strokeColor=none;fontSize=15;fontColor=#333333;fillColor=#f5f5f5;container=0;" parent="758" vertex="1">
                    <mxGeometry x="150.1199999999999" width="98.5" height="130" as="geometry"/>
                </mxCell>
                <mxCell id="765" value="Game Title" style="text;html=1;strokeColor=none;fillColor=none;align=center;verticalAlign=middle;whiteSpace=wrap;rounded=0;fontSize=15;fontColor=#000000;container=0;" parent="758" vertex="1">
                    <mxGeometry x="153.6199999999999" y="130" width="91.5" height="30" as="geometry"/>
                </mxCell>
                <mxCell id="766" value="Platform" style="text;html=1;strokeColor=none;fillColor=none;align=center;verticalAlign=middle;whiteSpace=wrap;rounded=0;fontSize=13;fontColor=#808080;container=0;" parent="758" vertex="1">
                    <mxGeometry x="153.6199999999999" y="150" width="91.5" height="30" as="geometry"/>
                </mxCell>
                <mxCell id="767" value="" style="html=1;shadow=0;dashed=0;shape=mxgraph.bootstrap.rrect;rSize=5;strokeColor=#DEE2E6;html=1;whiteSpace=wrap;fillColor=#ffffff;fontColor=#000000;fontSize=13;" parent="1" vertex="1">
                    <mxGeometry x="1200" y="1870" width="150" height="30" as="geometry"/>
                </mxCell>
                <mxCell id="768" value="&lt;&lt;" style="strokeColor=inherit;fillColor=inherit;gradientColor=inherit;fontColor=inherit;html=1;shadow=0;dashed=0;shape=mxgraph.bootstrap.leftButton;rSize=5;perimeter=none;whiteSpace=wrap;resizeHeight=1;fontSize=14;" parent="767" vertex="1">
                    <mxGeometry width="30" height="30" relative="1" as="geometry"/>
                </mxCell>
                <mxCell id="769" value="1" style="strokeColor=inherit;fillColor=inherit;gradientColor=inherit;fontColor=inherit;html=1;shadow=0;dashed=0;perimeter=none;whiteSpace=wrap;resizeHeight=1;fontSize=14;" parent="767" vertex="1">
                    <mxGeometry width="30" height="30" relative="1" as="geometry">
                        <mxPoint x="30" as="offset"/>
                    </mxGeometry>
                </mxCell>
                <mxCell id="770" value="2" style="strokeColor=inherit;fillColor=inherit;gradientColor=inherit;fontColor=inherit;html=1;shadow=0;dashed=0;perimeter=none;whiteSpace=wrap;resizeHeight=1;fontSize=14;" parent="767" vertex="1">
                    <mxGeometry width="30" height="30" relative="1" as="geometry">
                        <mxPoint x="60" as="offset"/>
                    </mxGeometry>
                </mxCell>
                <mxCell id="771" value="3" style="strokeColor=inherit;fillColor=inherit;gradientColor=inherit;fontColor=inherit;html=1;shadow=0;dashed=0;perimeter=none;whiteSpace=wrap;resizeHeight=1;fontSize=14;" parent="767" vertex="1">
                    <mxGeometry width="30" height="30" relative="1" as="geometry">
                        <mxPoint x="90" as="offset"/>
                    </mxGeometry>
                </mxCell>
                <mxCell id="772" value="&gt;&gt;" style="strokeColor=inherit;fillColor=inherit;gradientColor=inherit;fontColor=inherit;html=1;shadow=0;dashed=0;shape=mxgraph.bootstrap.rightButton;rSize=5;perimeter=none;whiteSpace=wrap;resizeHeight=1;fontSize=14;" parent="767" vertex="1">
                    <mxGeometry x="1" width="30" height="30" relative="1" as="geometry">
                        <mxPoint x="-30" as="offset"/>
                    </mxGeometry>
                </mxCell>
                <mxCell id="773" value="" style="group" parent="1" vertex="1" connectable="0">
                    <mxGeometry x="210" y="590" width="850" height="70" as="geometry"/>
                </mxCell>
                <mxCell id="774" value="" style="rounded=0;whiteSpace=wrap;html=1;strokeColor=#000000;fillColor=none;" parent="773" vertex="1">
                    <mxGeometry width="850" height="70" as="geometry"/>
                </mxCell>
                <mxCell id="775" value="Gamestopia" style="text;strokeColor=none;fillColor=none;html=1;fontSize=24;fontStyle=1;verticalAlign=middle;align=center;" parent="773" vertex="1">
                    <mxGeometry x="15" y="15" width="160" height="40" as="geometry"/>
                </mxCell>
                <mxCell id="776" value="" style="group" parent="773" vertex="1" connectable="0">
                    <mxGeometry x="634" y="20" width="90" height="30" as="geometry"/>
                </mxCell>
                <mxCell id="777" value="" style="html=1;verticalLabelPosition=bottom;align=center;labelBackgroundColor=#ffffff;verticalAlign=top;strokeWidth=2;strokeColor=#000000;shadow=0;dashed=0;shape=mxgraph.ios7.icons.user;fillColor=none;" parent="776" vertex="1">
                    <mxGeometry width="30" height="30" as="geometry"/>
                </mxCell>
                <mxCell id="778" value="Hello,&lt;br&gt;Sign In" style="text;html=1;strokeColor=none;fillColor=none;align=left;verticalAlign=middle;whiteSpace=wrap;rounded=0;" parent="776" vertex="1">
                    <mxGeometry x="40" width="50" height="30" as="geometry"/>
                </mxCell>
                <mxCell id="779" value="" style="group" parent="773" vertex="1" connectable="0">
                    <mxGeometry x="528" y="20" width="80" height="30" as="geometry"/>
                </mxCell>
                <mxCell id="780" value="" style="html=1;verticalLabelPosition=bottom;align=center;labelBackgroundColor=#ffffff;verticalAlign=top;strokeWidth=2;strokeColor=#000000;shadow=0;dashed=0;shape=mxgraph.ios7.icons.globe;fontSize=15;fontColor=#000000;fillColor=none;" parent="779" vertex="1">
                    <mxGeometry width="30" height="30" as="geometry"/>
                </mxCell>
                <mxCell id="781" value="EN&amp;nbsp;" style="text;html=1;strokeColor=none;fillColor=none;align=left;verticalAlign=middle;whiteSpace=wrap;rounded=0;container=0;" parent="779" vertex="1">
                    <mxGeometry x="40" width="40" height="30" as="geometry"/>
                </mxCell>
                <mxCell id="782" value="" style="html=1;verticalLabelPosition=bottom;labelBackgroundColor=#ffffff;verticalAlign=top;shadow=0;dashed=0;strokeWidth=2;shape=mxgraph.ios7.misc.down;strokeColor=default;fontSize=15;fontColor=#000000;fillColor=none;container=0;" parent="779" vertex="1">
                    <mxGeometry x="63" y="14.120000000000005" width="8" height="3" as="geometry"/>
                </mxCell>
                <mxCell id="783" value="" style="group" parent="773" vertex="1" connectable="0">
                    <mxGeometry x="194" y="20.120000000000005" width="300" height="30" as="geometry"/>
                </mxCell>
                <mxCell id="784" value="" style="html=1;verticalLabelPosition=bottom;align=center;labelBackgroundColor=#ffffff;verticalAlign=top;strokeWidth=2;strokeColor=#000000;shadow=0;dashed=0;shape=mxgraph.ios7.icons.looking_glass;fontSize=15;fontColor=#000000;fillColor=none;" parent="783" vertex="1">
                    <mxGeometry x="270" y="4.939999999999998" width="20" height="20.12" as="geometry"/>
                </mxCell>
                <mxCell id="785" value="&amp;nbsp; Search" style="rounded=1;whiteSpace=wrap;html=1;strokeColor=#000000;fontSize=15;fontColor=#000000;fillColor=none;align=left;" parent="783" vertex="1">
                    <mxGeometry width="300" height="30" as="geometry"/>
                </mxCell>
                <mxCell id="786" value="" style="group" parent="773" vertex="1" connectable="0">
                    <mxGeometry x="750" y="20" width="87" height="30" as="geometry"/>
                </mxCell>
                <mxCell id="787" value="My Rentals" style="text;html=1;strokeColor=none;fillColor=none;align=left;verticalAlign=middle;whiteSpace=wrap;rounded=0;" parent="786" vertex="1">
                    <mxGeometry x="37" width="50" height="30" as="geometry"/>
                </mxCell>
                <mxCell id="788" value="" style="html=1;verticalLabelPosition=bottom;align=center;labelBackgroundColor=#ffffff;verticalAlign=top;strokeWidth=2;strokeColor=#000000;shadow=0;dashed=0;shape=mxgraph.ios7.icons.bookmark;" parent="786" vertex="1">
                    <mxGeometry width="22.5" height="30" as="geometry"/>
                </mxCell>
                <mxCell id="789" value="" style="group" parent="1" vertex="1" connectable="0">
                    <mxGeometry x="210" y="660" width="850" height="50" as="geometry"/>
                </mxCell>
                <mxCell id="790" value="" style="rounded=0;whiteSpace=wrap;html=1;strokeColor=default;fontColor=#000000;fillColor=none;" parent="789" vertex="1">
                    <mxGeometry width="850" height="50" as="geometry"/>
                </mxCell>
                <mxCell id="791" value="Trade-in" style="text;html=1;strokeColor=none;fillColor=none;align=center;verticalAlign=middle;whiteSpace=wrap;rounded=0;fontSize=17;" parent="789" vertex="1">
                    <mxGeometry x="294" y="10" width="100" height="30" as="geometry"/>
                </mxCell>
                <mxCell id="792" value="" style="group" parent="789" vertex="1" connectable="0">
                    <mxGeometry x="80" y="10" width="115" height="30" as="geometry"/>
                </mxCell>
                <mxCell id="793" value="All Games" style="text;html=1;strokeColor=none;fillColor=none;align=left;verticalAlign=middle;whiteSpace=wrap;rounded=0;fontSize=17;" parent="792" vertex="1">
                    <mxGeometry width="115" height="30" as="geometry"/>
                </mxCell>
                <mxCell id="794" value="" style="html=1;verticalLabelPosition=bottom;labelBackgroundColor=#ffffff;verticalAlign=top;shadow=0;dashed=0;strokeWidth=2;shape=mxgraph.ios7.misc.down;strokeColor=default;fontSize=15;fontColor=#000000;fillColor=none;container=0;" parent="792" vertex="1">
                    <mxGeometry x="95" y="13.5" width="8" height="3" as="geometry"/>
                </mxCell>
                <mxCell id="795" value="Pricing" style="text;html=1;strokeColor=none;fillColor=none;align=center;verticalAlign=middle;whiteSpace=wrap;rounded=0;fontSize=17;" parent="789" vertex="1">
                    <mxGeometry x="480" y="10" width="100" height="30" as="geometry"/>
                </mxCell>
                <mxCell id="796" value="How it works" style="text;html=1;strokeColor=none;fillColor=none;align=center;verticalAlign=middle;whiteSpace=wrap;rounded=0;fontSize=17;" parent="789" vertex="1">
                    <mxGeometry x="648.75" y="10" width="114" height="30" as="geometry"/>
                </mxCell>
                <mxCell id="797" value="" style="group" parent="1" vertex="1" connectable="0">
                    <mxGeometry x="1100" y="590" width="360" height="70" as="geometry"/>
                </mxCell>
                <mxCell id="798" value="" style="rounded=0;whiteSpace=wrap;html=1;strokeColor=default;fontSize=13;fontColor=#000000;fillColor=none;" parent="797" vertex="1">
                    <mxGeometry width="360" height="70" as="geometry"/>
                </mxCell>
                <mxCell id="799" value="Gamestopia" style="text;strokeColor=none;fillColor=none;html=1;fontSize=24;fontStyle=1;verticalAlign=middle;align=center;" parent="797" vertex="1">
                    <mxGeometry x="80" y="17.5" width="160" height="40" as="geometry"/>
                </mxCell>
                <mxCell id="800" value="" style="html=1;verticalLabelPosition=bottom;align=center;labelBackgroundColor=#ffffff;verticalAlign=top;strokeWidth=2;strokeColor=#000000;shadow=0;dashed=0;shape=mxgraph.ios7.icons.user;fillColor=none;" parent="797" vertex="1">
                    <mxGeometry x="260" y="20" width="30" height="30" as="geometry"/>
                </mxCell>
                <mxCell id="801" value="" style="html=1;verticalLabelPosition=bottom;labelBackgroundColor=#ffffff;verticalAlign=top;shadow=0;dashed=0;strokeWidth=2;shape=mxgraph.ios7.misc.options;fillColor=#222222;sketch=0;strokeColor=default;fontSize=13;fontColor=#000000;" parent="797" vertex="1">
                    <mxGeometry x="20" y="25" width="30" height="25" as="geometry"/>
                </mxCell>
                <mxCell id="802" value="" style="html=1;verticalLabelPosition=bottom;align=center;labelBackgroundColor=#ffffff;verticalAlign=top;strokeWidth=2;strokeColor=#000000;shadow=0;dashed=0;shape=mxgraph.ios7.icons.bookmark;" parent="797" vertex="1">
                    <mxGeometry x="310" y="20" width="22.5" height="30" as="geometry"/>
                </mxCell>
                <mxCell id="804" value="" style="html=1;verticalLabelPosition=bottom;labelBackgroundColor=#ffffff;verticalAlign=top;shadow=0;dashed=0;strokeWidth=2;shape=mxgraph.ios7.misc.down;strokeColor=default;fontSize=15;fontColor=#000000;fillColor=none;container=0;" vertex="1" parent="1">
                    <mxGeometry x="440" y="1083.5" width="8" height="3" as="geometry"/>
                </mxCell>
            </root>
        </mxGraphModel>
    </diagram>
</mxfile>